<svg viewBox="0 0 800 650" fill="none" xmlns="http://www.w3.org/2000/svg" class="w-full h-auto max-w-2xl relative z-10" style="filter: drop-shadow(rgba(239, 68, 68, 0.4) 0px 0px 40px) drop-shadow(rgba(234, 88, 12, 0.3) 0px 0px 80px);"><defs><linearGradient id="dragonBodyGrad" x1="0%" y1="0%" x2="0%" y2="100%"><stop offset="0%" style="stop-color: rgb(180, 49, 4); stop-opacity: 1;"></stop><stop offset="50%" style="stop-color: rgb(139, 37, 0); stop-opacity: 1;"></stop><stop offset="100%" style="stop-color: rgb(122, 31, 0); stop-opacity: 1;"></stop></linearGradient><linearGradient id="dragonWingGrad" x1="0%" y1="0%" x2="100%" y2="100%"><stop offset="0%" style="stop-color: rgb(239, 68, 68); stop-opacity: 0.9;"></stop><stop offset="50%" style="stop-color: rgb(193, 68, 14); stop-opacity: 0.8;"></stop><stop offset="100%" style="stop-color: rgb(139, 37, 0); stop-opacity: 0.9;"></stop></linearGradient><radialGradient id="fireGlow" cx="50%" cy="50%" r="50%"><stop offset="0%" style="stop-color: rgb(255, 215, 0); stop-opacity: 1;"></stop><stop offset="40%" style="stop-color: rgb(255, 165, 0); stop-opacity: 0.9;"></stop><stop offset="70%" style="stop-color: rgb(255, 107, 0); stop-opacity: 0.6;"></stop><stop offset="100%" style="stop-color: rgb(239, 68, 68); stop-opacity: 0;"></stop></radialGradient></defs><path d="M 250 300 Q 80 220 20 180 Q 10 200 30 230 Q 90 280 200 340 Q 220 320 250 300 Z" fill="url(#dragonWingGrad)" opacity="0.85"></path><path d="M 250 300 Q 150 260 80 230 M 250 300 Q 170 280 120 265 M 250 300 Q 190 290 160 285" stroke="#7A1F00" stroke-width="2.5" opacity="0.6"></path><path d="M 240 280 Q 120 200 60 140 Q 50 145 55 160 Q 100 210 200 280 Z" fill="url(#dragonWingGrad)" opacity="0.75"></path><path d="M 550 300 Q 720 220 780 180 Q 790 200 770 230 Q 710 280 600 340 Q 580 320 550 300 Z" fill="url(#dragonWingGrad)" opacity="0.85"></path><path d="M 550 300 Q 650 260 720 230 M 550 300 Q 630 280 680 265 M 550 300 Q 610 290 640 285" stroke="#7A1F00" stroke-width="2.5" opacity="0.6"></path><path d="M 560 280 Q 680 200 740 140 Q 750 145 745 160 Q 700 210 600 280 Z" fill="url(#dragonWingGrad)" opacity="0.75"></path><ellipse cx="400" cy="380" rx="120" ry="90" fill="url(#dragonBodyGrad)"></ellipse><path d="M 400 310 Q 390 260 400 220" stroke="url(#dragonBodyGrad)" stroke-width="70" stroke-linecap="round"></path><ellipse cx="400" cy="200" rx="55" ry="50" fill="url(#dragonBodyGrad)"></ellipse><ellipse cx="430" cy="210" rx="30" ry="22" fill="#7A1F00"></ellipse><ellipse cx="445" cy="205" rx="6" ry="5" fill="#1a0a0a"></ellipse><ellipse cx="445" cy="215" rx="6" ry="5" fill="#1a0a0a"></ellipse><ellipse cx="415" cy="190" rx="12" ry="16" fill="#FFD700"></ellipse><ellipse cx="416" cy="190" rx="7" ry="11" fill="#1a0a0a"></ellipse><circle cx="418" cy="186" r="3" fill="#FFD700" opacity="0.9"></circle><path d="M 375 165 L 360 125 L 370 165 Z" fill="#8B2500"></path><path d="M 390 160 L 380 115 L 388 160 Z" fill="#8B2500"></path><path d="M 410 160 L 415 115 L 412 160 Z" fill="#8B2500"></path><path d="M 425 165 L 435 125 L 428 165 Z" fill="#8B2500"></path><g opacity="0.3"><circle cx="360" cy="360" r="10" fill="#C1440E"></circle><circle cx="385" cy="355" r="10" fill="#C1440E"></circle><circle cx="410" cy="353" r="10" fill="#C1440E"></circle><circle cx="435" cy="355" r="10" fill="#C1440E"></circle><circle cx="370" cy="385" r="10" fill="#C1440E"></circle><circle cx="395" cy="383" r="10" fill="#C1440E"></circle><circle cx="420" cy="383" r="10" fill="#C1440E"></circle></g><path d="M 320 410 Q 220 450 140 500 Q 130 505 125 495 L 135 485" stroke="url(#dragonBodyGrad)" stroke-width="40" stroke-linecap="round"></path><path d="M 280 430 L 265 445 L 285 440 Z" fill="#B43104"></path><path d="M 240 455 L 225 472 L 245 462 Z" fill="#B43104"></path><path d="M 190 480 L 175 498 L 195 488 Z" fill="#B43104"></path><ellipse cx="350" cy="450" rx="20" ry="35" fill="#8B2500"></ellipse><rect x="340" y="480" width="20" height="50" rx="10" fill="#7A1F00"></rect><ellipse cx="350" cy="530" rx="18" ry="10" fill="#5A1800"></ellipse><ellipse cx="450" cy="450" rx="20" ry="35" fill="#8B2500"></ellipse><rect x="440" y="480" width="20" height="50" rx="10" fill="#7A1F00"></rect><ellipse cx="450" cy="530" rx="18" ry="10" fill="#5A1800"></ellipse><ellipse cx="320" cy="430" rx="18" ry="32" fill="#7A1F00" opacity="0.8"></ellipse><rect x="312" y="458" width="16" height="45" rx="8" fill="#5A1800" opacity="0.8"></rect><ellipse cx="480" cy="430" rx="18" ry="32" fill="#7A1F00" opacity="0.8"></ellipse><rect x="472" y="458" width="16" height="45" rx="8" fill="#5A1800" opacity="0.8"></rect><g opacity="0.9"><ellipse cx="475" cy="215" rx="25" ry="18" fill="#FFD700"><animate attributeName="rx" values="25;35;25" dur="2s" repeatCount="indefinite"></animate><animate attributeName="opacity" values="0.7;1;0.7" dur="2s" repeatCount="indefinite"></animate></ellipse><ellipse cx="505" cy="215" rx="30" ry="20" fill="#FFA500"><animate attributeName="rx" values="30;42;30" dur="2s" repeatCount="indefinite"></animate><animate attributeName="opacity" values="0.8;1;0.8" dur="2s" repeatCount="indefinite"></animate></ellipse><ellipse cx="540" cy="215" rx="35" ry="22" fill="#FF6B00"><animate attributeName="rx" values="35;48;35" dur="2s" repeatCount="indefinite"></animate><animate attributeName="opacity" values="0.6;0.9;0.6" dur="2s" repeatCount="indefinite"></animate></ellipse><ellipse cx="580" cy="218" rx="28" ry="18" fill="#ef4444"><animate attributeName="rx" values="28;38;28" dur="2s" repeatCount="indefinite"></animate><animate attributeName="opacity" values="0.5;0.8;0.5" dur="2s" repeatCount="indefinite"></animate></ellipse></g><ellipse cx="400" cy="350" rx="200" ry="150" fill="url(#fireGlow)" opacity="0.15"></ellipse></svg>