<svg viewBox="0 0 600 700" fill="none" xmlns="http://www.w3.org/2000/svg" class="w-full h-auto relative z-10"><circle cx="450" cy="120" r="60" fill="#67e8f9" opacity="0.3"></circle><circle cx="450" cy="120" r="50" fill="#22d3ee" opacity="0.5"></circle><path d="M 300 250 L 200 650 L 400 650 Z" fill="#1e40af"></path><path d="M 300 250 L 200 650 L 400 650 Z" fill="url(#robeGradient)"></path><g opacity="0.6"><circle cx="280" cy="350" r="3" fill="#22d3ee"></circle><circle cx="320" cy="380" r="3" fill="#22d3ee"></circle><circle cx="260" cy="420" r="3" fill="#22d3ee"></circle><circle cx="340" cy="450" r="3" fill="#22d3ee"></circle><circle cx="300" cy="500" r="3" fill="#22d3ee"></circle><circle cx="270" cy="550" r="3" fill="#22d3ee"></circle><circle cx="330" cy="580" r="3" fill="#22d3ee"></circle></g><path d="M 280 280 L 180 350" stroke="#1e40af" stroke-width="25" stroke-linecap="round"></path><path d="M 320 280 L 420 320" stroke="#1e40af" stroke-width="25" stroke-linecap="round"></path><line x1="420" y1="320" x2="500" y2="250" stroke="#a78bfa" stroke-width="8" stroke-linecap="round"></line><g transform="translate(500, 250)"><path d="M 0,-20 L 5,-5 L 20,0 L 5,5 L 0,20 L -5,5 L -20,0 L -5,-5 Z" fill="#22d3ee"></path><path d="M 0,-15 L 3.5,-3.5 L 15,0 L 3.5,3.5 L 0,15 L -3.5,3.5 L -15,0 L -3.5,-3.5 Z" fill="#67e8f9"></path></g><g fill="#22d3ee" opacity="0.7"><circle cx="480" cy="260" r="3"><animate attributeName="opacity" values="0.3;1;0.3" dur="2s" repeatCount="indefinite"></animate></circle><circle cx="510" cy="230" r="2"><animate attributeName="opacity" values="0.5;1;0.5" dur="1.5s" repeatCount="indefinite"></animate></circle><circle cx="490" cy="240" r="2.5"><animate attributeName="opacity" values="0.4;1;0.4" dur="1.8s" repeatCount="indefinite"></animate></circle></g><circle cx="300" cy="220" r="40" fill="#d4a373"></circle><path d="M 260 220 L 300 100 L 340 220 Z" fill="#1e3a8a"></path><ellipse cx="300" cy="220" rx="45" ry="10" fill="#1e3a8a"></ellipse><g fill="#22d3ee" opacity="0.8"><circle cx="290" cy="180" r="2"></circle><circle cx="310" cy="160" r="2"></circle><circle cx="300" cy="130" r="2"></circle><path d="M 305 145 L 307 147 L 309 145 L 307 143 Z"></path><path d="M 295 165 L 297 167 L 299 165 L 297 163 Z"></path></g><path d="M 280 235 Q 300 255 320 235" fill="#e5e5e5"></path><path d="M 285 240 Q 300 250 315 240 Q 310 260 300 265 Q 290 260 285 240" fill="#f5f5f5"></path><rect x="160" y="340" width="40" height="50" rx="3" fill="#7c3aed"></rect><rect x="165" y="345" width="30" height="40" fill="#6d28d9"></rect><line x1="170" y1="365" x2="190" y2="365" stroke="#22d3ee" stroke-width="1" opacity="0.5"></line><line x1="170" y1="370" x2="190" y2="370" stroke="#22d3ee" stroke-width="1" opacity="0.5"></line><line x1="170" y1="375" x2="190" y2="375" stroke="#22d3ee" stroke-width="1" opacity="0.5"></line><g opacity="0.6"><circle cx="150" cy="200" r="8" fill="#22d3ee"><animate attributeName="cy" values="200;190;200" dur="3s" repeatCount="indefinite"></animate></circle><circle cx="450" cy="350" r="6" fill="#a78bfa"><animate attributeName="cy" values="350;340;350" dur="2.5s" repeatCount="indefinite"></animate></circle><circle cx="120" cy="400" r="5" fill="#67e8f9"><animate attributeName="cy" values="400;390;400" dur="2.8s" repeatCount="indefinite"></animate></circle></g><g fill="#22d3ee" opacity="0.4"><circle cx="80" cy="100" r="2"></circle><circle cx="120" cy="80" r="2"></circle><circle cx="200" cy="60" r="2"></circle><circle cx="350" cy="90" r="2"></circle><circle cx="550" cy="200" r="2"></circle><circle cx="520" cy="400" r="2"></circle><circle cx="100" cy="500" r="2"></circle></g><defs><linearGradient id="robeGradient" x1="0%" y1="0%" x2="0%" y2="100%"><stop offset="0%" stop-color="#3b82f6" stop-opacity="0.3"></stop><stop offset="100%" stop-color="#1e3a8a" stop-opacity="0.1"></stop></linearGradient></defs></svg>