<?xml version="1.0" encoding="UTF-8"?>
<svg id="Calque_2" data-name="Calque 2" xmlns="http://www.w3.org/2000/svg" viewBox="0 0 144.48 73.86">
  <defs>
    <style>
      .cls-1 {
        fill: #fff;
      }
    </style>
  </defs>
  <g id="Layer_2" data-name="Layer 2">
    <g id="feuilles">
      <g>
        <path class="cls-1" d="M77.84,19.98c4.46.81,8.21,2.27,11.69,4.5.67.43,1.96.48,2.71.13,4.03-1.86,8.17-1.54,12.21-.47,3.94,1.04,7.39.24,10.8-1.65,1.04-.58,2.15-1.05,3.25-1.49.4-.16.89-.12,1.55.18-.86.76-1.75,1.49-2.56,2.29-1.19,1.18-2.36,2.39-3.48,3.63-4.73,5.28-12.39,6.22-18.29,3.5.74,1.43,1.2,2.55,1.86,3.54,2.43,3.63,6.07,5.66,10.09,6.85,2.85.85,5.69.02,8.23-1.61,1.41-.91,2.84-1.77,4.29-2.61,1.95-1.13,3.93-1.26,5.88.01,1.02.66,1.98.8,3.13.22.6-.3,1.39-.29,2.1-.31,1.58-.04,3.16-.01,4.84-.01.27,3.06-1.76,4.51-3.94,5.63-1.42.73-2.52,1.57-3.61,2.78-5.05,5.58-10.12,6.92-17.22,3.98-4.62-1.92-8.36-4.94-11.38-8.89-.41-.53-.89-1.01-1.5-1.4,1.37,4.81,3.2,9.35,7.09,12.73,1.41,1.22,3.01,2.05,4.85,2.47,2.8.64,5.58,1.38,8.37,2.07,3,.74,5.41,2.37,7.19,4.86.71,1,1.57,1.55,2.72,1.74,2.8.45,4.92,1.95,7,3.84,1.92,1.74,4.35,2.94,6.56,4.35.66.42,1.36.77,2.2,1.24-1.23,1.18-2.65,1.52-4,1.61-4.66.33-9.29.31-13.31-2.66-.29-.22-.74-.37-1.09-.34-4.32.36-7.63-1.85-10.86-4.24-2.85-2.1-4.79-5.04-6.18-8.13-1.4-3.13-3.38-5.54-5.98-7.6-.1.06-.33.13-.33.21-.22,3.26-.55,6.52-.58,9.78-.02,2.03.42,4.06.69,6.45-.65-.7-1.2-1.21-1.66-1.79-2.95-3.68-4.92-7.91-5.9-12.44-.56-2.58-.14-5.4-.02-8.1.09-1.9.39-3.8.65-5.69.59-4.35-1.28-7.89-4.07-10.85-4.61-4.9-10.38-7.2-17.26-6.45.71.25,1.43.47,2.12.77,2.01.89,3.83,1.96,4.55,4.28.16.51.71,1.04,1.22,1.28,3.5,1.64,5.2,4.59,5.31,8.22.17,5.8,2.42,10.66,5.88,15.11.1.13.2.25.28.39.03.06,0,.15,0,.43-.34-.03-.69.03-.97-.09-2.8-1.16-5.63-2.25-8.36-3.55-1.79-.85-3.53-1.89-4.16-4.06-.1-.36-.67-.62-1.07-.84-4.48-2.49-7.43-6.18-8.91-11.1-.57-1.91-1.29-3.78-2.06-5.61-.4-.94-1.02-1.8-1.6-2.66-.73-1.07-1.75-1.37-2.94-.83-1.52.69-3.08,1.34-4.52,2.18-1.77,1.04-3.44,2.26-5.63,3.72,1.25.15,2.01.12,2.68.35,1.19.4,2.46.77,3.44,1.5,1.39,1.03,1.74,2.65,1.35,4.33-.39,1.66-1.69,2.48-3.2,2.93-1.13.34-2.56-.46-2.93-1.51-.31-.87.17-1.94,1.17-2.3.34-.12.82.12,1.8.3-.91.48-1.32.7-1.78.94-.16.83.26,1.51,1,1.57.71.06,1.63-.16,2.16-.62,1.71-1.48,1.04-4.44-1.21-5.59-1.49-.76-3.07-.73-4.67-.36-2.43.56-4.31,2.03-6.09,3.65-5.08,4.61-10.15,9.24-15.15,14.07,1.32-.75,2.65-1.48,3.95-2.24,3.82-2.25,7.86-3.98,12.26-4.58,3.39-.46,6.83-.83,10.07.91.47.25,1.22.14,1.8,0,2.28-.56,4.42-.5,6.35,1.04,1.93,1.55,4.1,1.56,6.36.94.66-.18,1.34-.28,2.09-.44,0,.49.1.8-.01.93-2.4,2.6-4.22,5.85-7.89,7.04-.4.13-.79.55-.99.93-1.17,2.19-3.03,3.18-5.43,3.36-1.1.08-2.2.21-3.66.34-2.88,3.01-6.81,3.44-10.99,2.47-2.01-.47-3.99-1.15-5.91-1.91-3.73-1.47-7.56-2.48-11.54-3.06-2.12-.31-4.13.02-6.15.46-3.42.74-6.8,1.8-10.26,2.21-3.62.42-7.31.23-10.98.28-.28,0-.55-.22-1.35-.56.86-.19,1.24-.33,1.62-.35,1.83-.13,3.67-.36,5.5-.3,2.51.08,4.45-1.01,6.22-2.58,5.49-4.89,8.84-11.03,10.58-18.11.4-1.63.65-3.29,1.01-4.92.63-2.91,2.15-5.13,4.82-6.02.61-1.75.98-3.32,1.7-4.7.57-1.09,1.44-2.18,2.46-2.84,1.77-1.15,3-2.57,3.7-4.54.16-.46.61-.81,1.12-1.47.3.72.54,1.11.62,1.52.28,1.41.59,2.82.72,4.25.11,1.26.12,2.55-.06,3.8-.11.78-.04,1.29.42,1.95,1.42,2.01,1.4,5.02-.13,6.92-.77.96-.92,1.81-.9,3.01.02,1.72-.45,3.44-.75,5.16-.16.89-.4,1.76-.67,2.88,1.54-.74,1.85-1.86,2.06-3.06.52-2.9.98-5.82,1.6-8.7,1.27-5.94,3.75-11.35,7.42-16.21,1.48-1.95,3.31-3.49,5.62-4.31,1.03-.37,1.71-.78,2.24-1.86.57-1.15,1.65-2.09,2.66-2.95,1.44-1.23,3.02-2.3,4.57-3.46.2.29.43.47.44.67.2,2.3.37,4.6.55,6.91.1,1.34-.29,2.48-1.13,3.55-.39.5-.71,1.3-.61,1.88.5,3.08-.69,5.57-2.81,7.52-1.74,1.6-3.75,2.99-5.83,4.12-3.43,1.88-6.22,4.46-8.82,7.29-.53.57-.89,1.29-1.09,2.23.33-.2.69-.35.98-.6,5.09-4.5,10.49-8.6,16.53-11.74,1.71-.89,3.81-1.06,5.75-1.44,1.4-.27,2.85-.36,4.28-.47,3.66-.29,6.73-1.89,9.47-4.21,1.5-1.28,2.51-2.9,2.75-4.9.22-1.84-.62-3.19-2.42-3.97-1.23-.54-2.76-.25-3.68.89-.41.5-.78,1.33-.65,1.89.1.44,1,.69,1.69,1.11-.12.59-.76.85-1.32.55-.56-.3-1.15-.92-1.32-1.51-.46-1.61,1.25-3.74,3.16-4.17,3.25-.72,6.32,2.21,5.72,5.5-.48,2.63-1.77,4.78-3.99,6.31-1.17.81-2.39,1.55-3.94,2.55Z"/>
        <path d="M19.09,52.28c6.7-7.28,11.84-15.95,14.8-25.4.38-1.18.86-2.9,1.19-4.09-.09.7-.19,1.41-.31,2.11-1.89,10.53-7.49,20.47-15.69,27.37h0Z"/>
        <path d="M43.02,33.56c1.34-9.43,7.08-18.15,15.05-23.32.54-.33,1.08-.65,1.63-.97-.85.68-2.08,1.68-2.89,2.41-6.55,5.8-11.32,13.47-13.79,21.87h0Z"/>
        <path d="M69.54,22.38c7.77,4.84,11.23,13.79,15.7,21.35.54.96,1.41,2.32,1.99,3.25-6.75-7.59-9.74-18-17.7-24.6h0Z"/>
        <path d="M94.05,25.97c5.24,2.7,11,3.48,16.77,2.29-5.3,2.62-12.36,1.65-16.77-2.29h0Z"/>
        <path d="M97.5,39.79c.17,7.91.23,15.91,4.08,23.04-5.09-6.39-5.33-15.32-4.08-23.04h0Z"/>
        <path d="M101.44,39.55c6.5,4.83,14.67,8.59,21.78,2.63-6.23,7.36-16.22,3.5-21.78-2.63h0Z"/>
        <path d="M108.56,55.29c6.79,5.6,14.46,10.05,22.73,13.07.56.19,1.11.39,1.66.6-9.3-1.73-18.06-6.63-24.39-13.67h0Z"/>
        <path d="M30.71,52.28c10.47-2.98,21.76.25,32.09-3.48-9.8,5.02-21.63,1.88-32.09,3.48h0Z"/>
      </g>
    </g>
  </g>
</svg>